<mxfile host="Electron" agent="Mozilla/5.0 (Windows NT 10.0; Win64; x64) AppleWebKit/537.36 (KHTML, like Gecko) draw.io/28.1.2 Chrome/138.0.7204.243 Electron/37.4.0 Safari/537.36" version="28.1.2">
  <diagram name="Seite-1" id="mP4EBgech850jYEsPDmI">
    <mxGraphModel dx="1426" dy="841" grid="1" gridSize="10" guides="1" tooltips="1" connect="1" arrows="1" fold="1" page="1" pageScale="1" pageWidth="827" pageHeight="1169" math="0" shadow="0">
      <root>
        <mxCell id="0" />
        <mxCell id="1" parent="0" />
        <mxCell id="-USzgMSHQrYQiysnJhgb-3" value="" style="edgeStyle=orthogonalEdgeStyle;rounded=0;orthogonalLoop=1;jettySize=auto;html=1;" edge="1" parent="1" source="-USzgMSHQrYQiysnJhgb-1">
          <mxGeometry relative="1" as="geometry">
            <mxPoint x="320" y="170" as="targetPoint" />
          </mxGeometry>
        </mxCell>
        <mxCell id="-USzgMSHQrYQiysnJhgb-1" value="start" style="ellipse;whiteSpace=wrap;html=1;" vertex="1" parent="1">
          <mxGeometry x="260" y="10" width="120" height="80" as="geometry" />
        </mxCell>
        <mxCell id="-USzgMSHQrYQiysnJhgb-4" value="define variablen:&lt;div&gt;&lt;b&gt;name&lt;/b&gt;: &quot;MyName&quot;&lt;/div&gt;&lt;div&gt;&lt;b&gt;country&lt;/b&gt;: &quot;Germany&quot;&lt;/div&gt;&lt;div&gt;&lt;b&gt;age&lt;/b&gt;: &quot;38&quot;&lt;/div&gt;&lt;div&gt;&lt;b&gt;result&lt;/b&gt;: NULL&lt;/div&gt;" style="shape=process;whiteSpace=wrap;html=1;backgroundOutline=1;" vertex="1" parent="1">
          <mxGeometry x="250" y="110" width="140" height="80" as="geometry" />
        </mxCell>
        <mxCell id="-USzgMSHQrYQiysnJhgb-5" value="Process: means when your app shall do something itself" style="shape=document;whiteSpace=wrap;html=1;boundedLbl=1;" vertex="1" parent="1">
          <mxGeometry x="30" y="210" width="120" height="80" as="geometry" />
        </mxCell>
        <mxCell id="-USzgMSHQrYQiysnJhgb-6" value="" style="shape=flexArrow;endArrow=classic;html=1;rounded=0;" edge="1" parent="1">
          <mxGeometry width="50" height="50" relative="1" as="geometry">
            <mxPoint x="160" y="250" as="sourcePoint" />
            <mxPoint x="230" y="250" as="targetPoint" />
          </mxGeometry>
        </mxCell>
        <mxCell id="-USzgMSHQrYQiysnJhgb-11" value="" style="edgeStyle=orthogonalEdgeStyle;rounded=0;orthogonalLoop=1;jettySize=auto;html=1;" edge="1" parent="1" source="-USzgMSHQrYQiysnJhgb-9" target="-USzgMSHQrYQiysnJhgb-10">
          <mxGeometry relative="1" as="geometry" />
        </mxCell>
        <mxCell id="-USzgMSHQrYQiysnJhgb-9" value="Text Generator Process" style="shape=process;whiteSpace=wrap;html=1;backgroundOutline=1;" vertex="1" parent="1">
          <mxGeometry x="240" y="210" width="160" height="90" as="geometry" />
        </mxCell>
        <mxCell id="-USzgMSHQrYQiysnJhgb-14" value="" style="edgeStyle=orthogonalEdgeStyle;rounded=0;orthogonalLoop=1;jettySize=auto;html=1;" edge="1" parent="1" source="-USzgMSHQrYQiysnJhgb-10" target="-USzgMSHQrYQiysnJhgb-13">
          <mxGeometry relative="1" as="geometry" />
        </mxCell>
        <mxCell id="-USzgMSHQrYQiysnJhgb-10" value="print result" style="rounded=1;whiteSpace=wrap;html=1;" vertex="1" parent="1">
          <mxGeometry x="260" y="310" width="120" height="60" as="geometry" />
        </mxCell>
        <mxCell id="-USzgMSHQrYQiysnJhgb-13" value="END" style="ellipse;whiteSpace=wrap;html=1;rounded=1;" vertex="1" parent="1">
          <mxGeometry x="280" y="400" width="80" height="80" as="geometry" />
        </mxCell>
        <mxCell id="-USzgMSHQrYQiysnJhgb-17" value="" style="endArrow=classic;html=1;rounded=0;" edge="1" parent="1">
          <mxGeometry width="50" height="50" relative="1" as="geometry">
            <mxPoint x="319.5" y="190" as="sourcePoint" />
            <mxPoint x="320" y="210" as="targetPoint" />
          </mxGeometry>
        </mxCell>
        <mxCell id="-USzgMSHQrYQiysnJhgb-18" value="&lt;b&gt;Pseudo Code&lt;/b&gt;&lt;div&gt;START&lt;br&gt;&lt;div&gt;SET name = MyName&lt;/div&gt;&lt;/div&gt;&lt;div&gt;SET country = germany&lt;/div&gt;&lt;div&gt;SET age = 38&lt;/div&gt;&lt;div&gt;SET result: NULL&lt;/div&gt;&lt;div&gt;&lt;br&gt;&lt;/div&gt;&lt;div&gt;result =&amp;nbsp;&lt;span style=&quot;text-wrap-mode: wrap; background-color: transparent; color: light-dark(rgb(0, 0, 0), rgb(255, 255, 255));&quot;&gt;Hello my name is + name + and i am + age + years old&lt;/span&gt;&lt;/div&gt;&lt;div&gt;&lt;span style=&quot;text-wrap-mode: wrap; background-color: transparent; color: light-dark(rgb(0, 0, 0), rgb(255, 255, 255));&quot;&gt;&lt;span style=&quot;white-space: pre;&quot;&gt;&#x9;&lt;/span&gt;&lt;span style=&quot;white-space: pre;&quot;&gt;&#x9;&lt;/span&gt;&amp;nbsp;&lt;/span&gt;&lt;span style=&quot;background-color: transparent; color: light-dark(rgb(0, 0, 0), rgb(255, 255, 255)); text-wrap-mode: wrap;&quot;&gt;and I come from + country&lt;/span&gt;&lt;/div&gt;&lt;div&gt;&lt;span style=&quot;text-wrap-mode: wrap; background-color: transparent; color: light-dark(rgb(0, 0, 0), rgb(255, 255, 255));&quot;&gt;PRINT result&lt;/span&gt;&lt;/div&gt;&lt;div&gt;&lt;span style=&quot;text-wrap-mode: wrap; background-color: transparent; color: light-dark(rgb(0, 0, 0), rgb(255, 255, 255));&quot;&gt;END&lt;/span&gt;&lt;/div&gt;" style="text;html=1;align=left;verticalAlign=middle;resizable=0;points=[];autosize=1;strokeColor=none;fillColor=none;" vertex="1" parent="1">
          <mxGeometry x="414" y="160" width="360" height="170" as="geometry" />
        </mxCell>
      </root>
    </mxGraphModel>
  </diagram>
</mxfile>
